<svg width="439" height="68" viewBox="0 0 439 68" fill="none" xmlns="http://www.w3.org/2000/svg">
<path d="M16.8515 63.4246C21.8049 66.3513 27.3888 67.7674 33.6031 67.7674C39.7273 67.7674 45.3112 66.3513 50.3547 63.4246C55.3082 60.5924 59.1808 56.5329 62.0628 51.4349C64.9448 46.3369 66.3859 40.6725 66.3859 34.2528C66.3859 27.9275 64.9448 22.1687 62.0628 17.0707C59.1808 11.9727 55.3082 8.00763 50.3547 5.08101C45.3112 2.24879 39.7273 0.738281 33.6031 0.738281C27.3888 0.738281 21.8049 2.24879 16.8515 5.17542C11.808 8.10204 7.93526 12.0671 5.05326 17.1651C2.17125 22.2631 0.820312 28.022 0.820312 34.2528C0.820312 40.5781 2.17125 46.2425 5.05326 51.3405C7.93526 56.4385 11.808 60.498 16.8515 63.4246ZM47.923 59.554C43.6 62.1029 38.8267 63.3302 33.6031 63.3302C28.2894 63.3302 23.5161 62.1029 19.1931 59.554C14.8701 57.0994 11.5377 53.6063 9.10606 49.1692C6.58431 44.732 5.4135 39.7284 5.4135 34.2528C5.4135 28.7772 6.58431 23.868 9.10606 19.4309C11.5377 14.9938 14.8701 11.5007 19.1931 8.95171C23.5161 6.49712 28.2894 5.17542 33.6031 5.17542C38.8267 5.17542 43.6 6.49712 47.923 8.95171C52.156 11.5007 55.4883 14.9938 58.01 19.4309C60.4417 23.868 61.7026 28.7772 61.7026 34.2528C61.7026 39.7284 60.4417 44.732 58.01 49.1692C55.4883 53.6063 52.156 57.0994 47.923 59.554Z" fill="#9B4628"/>
<path d="M121.805 44.1656C126.488 42.7495 130.18 40.2949 132.702 36.7074C135.224 33.1199 136.575 28.7772 136.575 23.4904C136.575 16.5987 134.323 11.1231 129.82 7.15797C125.317 3.19287 119.103 1.21031 111.177 1.21031H88.5715V5.55304H111.177C117.842 5.55304 122.975 7.15797 126.578 10.2734C130.09 13.3888 131.892 17.826 131.892 23.4904C131.892 29.2492 130.09 33.6864 126.578 36.8018C122.975 39.9173 117.842 41.4278 111.177 41.4278H88.5715V67.2953H93.1647V45.6761H111.177C112.978 45.6761 115.05 45.5817 117.302 45.2041L132.342 67.2953H137.566L121.805 44.1656Z" fill="#AC603F"/>
<path d="M169.641 63.4246C174.594 66.3513 180.178 67.7674 186.393 67.7674C190.896 67.7674 195.039 67.0121 198.911 65.4072C202.784 63.8967 206.116 61.5365 208.818 58.5155L205.936 55.4C200.803 60.6868 194.318 63.3302 186.573 63.3302C181.259 63.3302 176.486 62.1029 172.163 59.554C167.84 57.0994 164.417 53.6063 161.986 49.1692C159.464 44.732 158.293 39.7284 158.293 34.2528C158.293 28.7772 159.464 23.868 161.986 19.4309C164.417 14.9938 167.84 11.5007 172.163 8.95171C176.486 6.49712 181.259 5.17542 186.573 5.17542C194.408 5.17542 200.893 7.81882 205.936 13.0112L208.818 9.89577C206.116 6.87474 202.784 4.60897 199.001 3.09846C195.129 1.58794 190.896 0.738281 186.393 0.738281C180.178 0.738281 174.594 2.24879 169.641 5.08101C164.688 8.00763 160.815 11.9727 157.933 17.0707C155.051 22.1687 153.7 27.9275 153.7 34.2528C153.7 40.6725 155.051 46.3369 157.933 51.4349C160.815 56.5329 164.688 60.5924 169.641 63.4246Z" fill="#BD7B56"/>
<path d="M271.344 31.6094H230.545V35.8578H271.344V31.6094ZM271.344 1.21031H230.545V5.55304H271.344V1.21031ZM230.545 62.9526V67.2953H271.344V62.9526H230.545Z" fill="#CE956D"/>
<path d="M303.169 60.498C307.582 65.4072 313.796 67.7674 321.812 67.7674C329.737 67.7674 335.951 65.4072 340.454 60.498C344.868 55.6833 347.119 48.6027 347.119 39.2564V1.21031H342.526V39.0676C342.526 47.1866 340.725 53.3231 337.212 57.2882C333.61 61.3477 328.566 63.3302 321.902 63.3302C315.147 63.3302 310.013 61.3477 306.501 57.2882C302.898 53.3231 301.187 47.1866 301.187 39.0676V1.21031H296.594V39.2564C296.594 48.6027 298.755 55.6833 303.169 60.498Z" fill="#DFB084"/>
<path d="M434.427 67.2953H438.93L438.84 1.21031H435.057L406.868 52.2846L378.678 1.21031H374.805V67.2953H379.309V10.9343L405.697 58.5155H407.948L434.337 10.7454L434.427 67.2953Z" fill="#F0CA9B"/>
</svg>
